<?xml version="1.0" encoding="UTF-8"?>
<svg xmlns="http://www.w3.org/2000/svg" xmlns:xlink="http://www.w3.org/1999/xlink" width="2000" height="2000" viewBox="0 0 2000 2000">

<path fill-rule="evenodd" fill="rgb(95.701599%, 96.875%, 98.046875%)" fill-opacity="1" d="M 1908.238281 1915.15625 L 1889.179688 1915.15625 C 1888.300781 1915.15625 1887.589844 1915.871094 1887.589844 1916.746094 L 1887.589844 1935.800781 C 1887.589844 1936.679688 1888.300781 1937.394531 1889.179688 1937.394531 L 1908.238281 1937.394531 C 1909.109375 1937.394531 1909.828125 1936.679688 1909.828125 1935.800781 L 1909.828125 1916.746094 C 1909.828125 1915.871094 1909.109375 1915.15625 1908.238281 1915.15625 "/>
<path fill-rule="evenodd" fill="rgb(95.701599%, 96.875%, 98.046875%)" fill-opacity="1" d="M 1865.28125 1916.171875 L 1847.089844 1916.171875 C 1846.261719 1916.171875 1845.578125 1916.855469 1845.578125 1917.691406 L 1845.578125 1935.875 C 1845.578125 1936.710938 1846.261719 1937.394531 1847.089844 1937.394531 L 1865.28125 1937.394531 C 1866.109375 1937.394531 1866.800781 1936.710938 1866.800781 1935.875 L 1866.800781 1917.691406 C 1866.800781 1916.855469 1866.109375 1916.171875 1865.28125 1916.171875 "/>
<path fill-rule="evenodd" fill="rgb(95.701599%, 96.875%, 98.046875%)" fill-opacity="1" d="M 1822.320312 1917.1875 L 1805.011719 1917.1875 C 1804.210938 1917.1875 1803.558594 1917.839844 1803.558594 1918.636719 L 1803.558594 1935.949219 C 1803.558594 1936.742188 1804.210938 1937.394531 1805.011719 1937.394531 L 1822.320312 1937.394531 C 1823.121094 1937.394531 1823.769531 1936.742188 1823.769531 1935.949219 L 1823.769531 1918.636719 C 1823.769531 1917.839844 1823.121094 1917.1875 1822.320312 1917.1875 "/>
<path fill-rule="evenodd" fill="rgb(95.701599%, 96.875%, 98.046875%)" fill-opacity="1" d="M 1779.371094 1918.207031 L 1762.929688 1918.207031 C 1762.171875 1918.207031 1761.550781 1918.824219 1761.550781 1919.582031 L 1761.550781 1936.019531 C 1761.550781 1936.777344 1762.171875 1937.394531 1762.929688 1937.394531 L 1779.371094 1937.394531 C 1780.121094 1937.394531 1780.738281 1936.777344 1780.738281 1936.019531 L 1780.738281 1919.582031 C 1780.738281 1918.824219 1780.121094 1918.207031 1779.371094 1918.207031 "/>
<path fill-rule="evenodd" fill="rgb(95.701599%, 96.875%, 98.046875%)" fill-opacity="1" d="M 1736.410156 1919.222656 L 1720.839844 1919.222656 C 1720.128906 1919.222656 1719.539062 1919.808594 1719.539062 1920.523438 L 1719.539062 1936.09375 C 1719.539062 1936.808594 1720.128906 1937.394531 1720.839844 1937.394531 L 1736.410156 1937.394531 C 1737.128906 1937.394531 1737.710938 1936.808594 1737.710938 1936.09375 L 1737.710938 1920.523438 C 1737.710938 1919.808594 1737.128906 1919.222656 1736.410156 1919.222656 "/>
<path fill-rule="evenodd" fill="rgb(95.701599%, 96.875%, 98.046875%)" fill-opacity="1" d="M 1693.460938 1920.238281 L 1678.761719 1920.238281 C 1678.078125 1920.238281 1677.53125 1920.792969 1677.53125 1921.46875 L 1677.53125 1936.167969 C 1677.53125 1936.84375 1678.078125 1937.394531 1678.761719 1937.394531 L 1693.460938 1937.394531 C 1694.128906 1937.394531 1694.679688 1936.84375 1694.679688 1936.167969 L 1694.679688 1921.46875 C 1694.679688 1920.792969 1694.128906 1920.238281 1693.460938 1920.238281 "/>
<path fill-rule="evenodd" fill="rgb(95.701599%, 96.875%, 98.046875%)" fill-opacity="1" d="M 1650.5 1921.257812 L 1636.671875 1921.257812 C 1636.039062 1921.257812 1635.519531 1921.777344 1635.519531 1922.414062 L 1635.519531 1936.238281 C 1635.519531 1936.875 1636.039062 1937.394531 1636.671875 1937.394531 L 1650.5 1937.394531 C 1651.140625 1937.394531 1651.648438 1936.875 1651.648438 1936.238281 L 1651.648438 1922.414062 C 1651.648438 1921.777344 1651.140625 1921.257812 1650.5 1921.257812 "/>
<path fill-rule="evenodd" fill="rgb(95.701599%, 96.875%, 98.046875%)" fill-opacity="1" d="M 1607.539062 1922.273438 L 1594.589844 1922.273438 C 1593.988281 1922.273438 1593.511719 1922.761719 1593.511719 1923.355469 L 1593.511719 1936.3125 C 1593.511719 1936.90625 1593.988281 1937.394531 1594.589844 1937.394531 L 1607.539062 1937.394531 C 1608.140625 1937.394531 1608.628906 1936.90625 1608.628906 1936.3125 L 1608.628906 1923.355469 C 1608.628906 1922.761719 1608.140625 1922.273438 1607.539062 1922.273438 "/>
<path fill-rule="evenodd" fill="rgb(95.701599%, 96.875%, 98.046875%)" fill-opacity="1" d="M 1564.589844 1923.292969 L 1552.5 1923.292969 C 1551.949219 1923.292969 1551.488281 1923.746094 1551.488281 1924.300781 L 1551.488281 1936.386719 C 1551.488281 1936.941406 1551.949219 1937.394531 1552.5 1937.394531 L 1564.589844 1937.394531 C 1565.140625 1937.394531 1565.601562 1936.941406 1565.601562 1936.386719 L 1565.601562 1924.300781 C 1565.601562 1923.746094 1565.140625 1923.292969 1564.589844 1923.292969 "/>
<path fill-rule="nonzero" fill="rgb(24.31488%, 27.050781%, 30.589294%)" fill-opacity="1" d="M 473.257812 306.910156 L 1526.660156 306.910156 C 1543.769531 306.910156 1557.640625 320.78125 1557.640625 337.898438 L 1557.640625 709.890625 C 1718.871094 709.890625 1718.871094 808.5 1557.640625 808.5 L 1557.640625 1590.6875 L 1632.519531 1590.6875 L 1632.519531 1693.171875 L 367.402344 1693.171875 L 367.402344 1590.6875 L 442.273438 1590.6875 L 442.273438 808.5 C 281.054688 808.5 281.054688 709.890625 442.273438 709.890625 L 442.273438 337.898438 C 442.273438 320.78125 456.148438 306.910156 473.257812 306.910156 "/>
<path fill-rule="evenodd" fill="rgb(24.31488%, 27.050781%, 30.589294%)" fill-opacity="1" d="M 1142.839844 1538.523438 L 1474.941406 1538.523438 L 1474.941406 900.96875 L 1142.839844 900.96875 L 1142.839844 1538.523438 "/>
<path fill-rule="evenodd" fill="rgb(24.31488%, 27.050781%, 30.589294%)" fill-opacity="1" d="M 539.382812 903.371094 L 1061.25 903.371094 L 1061.25 1257.566406 L 539.382812 1257.566406 L 539.382812 903.371094 "/>
<path fill-rule="nonzero" fill="rgb(98.046875%, 98.046875%, 98.046875%)" fill-opacity="1" d="M 1333.578125 524.449219 L 1296.078125 524.449219 L 1296.078125 485.019531 L 1333.578125 485.019531 C 1337.851562 485.019531 1341.710938 485.800781 1345.160156 487.359375 C 1348.609375 488.878906 1351.320312 491.128906 1353.339844 494.070312 C 1355.410156 497.011719 1356.421875 500.640625 1356.460938 504.871094 C 1356.421875 509.011719 1355.410156 512.550781 1353.339844 515.441406 C 1351.320312 518.378906 1348.609375 520.589844 1345.160156 522.148438 C 1341.710938 523.671875 1337.820312 524.449219 1333.578125 524.449219 Z M 1296.078125 627.570312 L 1296.078125 565.808594 L 1340.75 565.808594 C 1351.089844 565.761719 1360.238281 564.101562 1368.179688 560.941406 C 1376.121094 557.769531 1382.839844 553.351562 1388.261719 547.75 C 1393.691406 542.140625 1397.78125 535.660156 1400.53125 528.351562 C 1403.339844 521.050781 1404.71875 513.191406 1404.71875 504.871094 C 1404.71875 496.460938 1403.339844 488.601562 1400.53125 481.210938 C 1397.78125 473.851562 1393.691406 467.371094 1388.261719 461.769531 C 1382.839844 456.109375 1376.121094 451.691406 1368.179688 448.53125 C 1360.238281 445.371094 1351.089844 443.710938 1340.75 443.660156 L 1248.648438 443.660156 L 1248.648438 627.570312 Z M 1107.308594 588.96875 C 1099.71875 588.921875 1092.828125 587.539062 1086.671875 584.828125 C 1080.519531 582.128906 1075.230469 578.351562 1070.859375 573.53125 C 1066.449219 568.699219 1063.050781 563.050781 1060.710938 556.621094 C 1058.320312 550.179688 1057.171875 543.238281 1057.121094 535.75 C 1057.171875 528.171875 1058.320312 521.179688 1060.710938 514.75 C 1063.050781 508.320312 1066.449219 502.671875 1070.859375 497.890625 C 1075.230469 493.058594 1080.511719 489.289062 1086.671875 486.628906 C 1092.828125 483.921875 1099.71875 482.578125 1107.308594 482.539062 C 1114.929688 482.578125 1121.78125 483.921875 1127.890625 486.628906 C 1134.050781 489.289062 1139.289062 493.058594 1143.660156 497.890625 C 1148.019531 502.671875 1151.378906 508.320312 1153.671875 514.75 C 1156.019531 521.179688 1157.210938 528.171875 1157.210938 535.75 C 1157.210938 543.238281 1156.019531 550.179688 1153.671875 556.621094 C 1151.378906 563.050781 1148.019531 568.710938 1143.660156 573.53125 C 1139.300781 578.351562 1134.050781 582.121094 1127.890625 584.828125 C 1121.78125 587.539062 1114.929688 588.921875 1107.308594 588.96875 Z M 1107.308594 630.878906 C 1121.460938 630.828125 1134.46875 628.480469 1146.371094 623.890625 C 1158.261719 619.308594 1168.660156 612.769531 1177.480469 604.320312 C 1186.300781 595.859375 1193.148438 585.839844 1198.019531 574.21875 C 1202.941406 562.640625 1205.421875 549.808594 1205.46875 535.75 C 1205.421875 521.691406 1202.941406 508.871094 1198.019531 497.289062 C 1193.148438 485.660156 1186.300781 475.640625 1177.480469 467.191406 C 1168.660156 458.738281 1158.261719 452.199219 1146.371094 447.609375 C 1134.46875 443.019531 1121.460938 440.671875 1107.308594 440.628906 C 1093.148438 440.671875 1080.140625 443.019531 1068.199219 447.609375 C 1056.261719 452.199219 1045.859375 458.738281 1036.988281 467.191406 C 1028.128906 475.640625 1021.230469 485.660156 1016.359375 497.289062 C 1011.441406 508.871094 1008.960938 521.691406 1008.871094 535.75 C 1008.960938 549.808594 1011.441406 562.640625 1016.359375 574.21875 C 1021.230469 585.839844 1028.128906 595.871094 1036.988281 604.320312 C 1045.859375 612.769531 1056.261719 619.308594 1068.199219 623.890625 C 1080.140625 628.480469 1093.148438 630.828125 1107.308594 630.878906 Z M 965.957031 627.570312 L 965.957031 443.660156 L 918.53125 443.660156 L 918.53125 512.589844 L 842.15625 512.589844 L 842.15625 443.660156 L 794.730469 443.660156 L 794.730469 627.570312 L 842.15625 627.570312 L 842.15625 553.949219 L 918.53125 553.949219 L 918.53125 627.570312 Z M 676.820312 630.878906 C 693.316406 630.789062 707.242188 628.210938 718.640625 623.160156 C 730.035156 618.058594 738.675781 610.941406 744.558594 601.738281 C 750.484375 592.550781 753.425781 581.800781 753.472656 569.390625 C 753.425781 560.890625 751.910156 553.578125 749.015625 547.519531 C 746.117188 541.449219 742.167969 536.300781 737.25 532.171875 C 732.285156 528.03125 726.726562 524.628906 720.566406 521.921875 C 714.410156 519.210938 708.066406 517 701.496094 515.261719 C 694.925781 513.558594 688.582031 512.039062 682.425781 510.800781 C 676.269531 509.511719 670.707031 508.230469 665.746094 506.941406 C 660.828125 505.699219 656.921875 504.140625 653.980469 502.339844 C 651.085938 500.550781 649.570312 498.261719 649.523438 495.5 C 649.476562 491.449219 651.085938 488.328125 654.257812 486.171875 C 657.472656 483.960938 662.527344 482.808594 669.375 482.808594 C 675.488281 482.808594 681.691406 483.5 687.988281 484.929688 C 694.28125 486.351562 700.394531 488.46875 706.367188 491.359375 C 712.386719 494.210938 717.949219 497.800781 723.140625 502.109375 L 749.058594 466.550781 C 739.226562 458.140625 728.011719 451.75 715.421875 447.429688 C 702.832031 443.109375 689.136719 440.898438 674.339844 440.898438 C 662.527344 440.949219 652.097656 442.558594 643.042969 445.679688 C 633.945312 448.808594 626.316406 453.128906 620.109375 458.550781 C 613.90625 463.96875 609.21875 470.21875 606.050781 477.210938 C 602.878906 484.191406 601.269531 491.539062 601.269531 499.359375 C 601.363281 508.179688 602.832031 515.671875 605.726562 521.921875 C 608.671875 528.171875 612.574219 533.359375 617.539062 537.550781 C 622.453125 541.730469 628.015625 545.171875 634.171875 547.839844 C 640.332031 550.5 646.675781 552.671875 653.246094 554.320312 C 659.816406 556.019531 666.160156 557.441406 672.316406 558.640625 C 678.472656 559.828125 684.035156 561.070312 688.996094 562.359375 C 693.914062 563.648438 697.867188 565.210938 700.761719 567.089844 C 703.65625 568.929688 705.171875 571.371094 705.21875 574.359375 C 705.21875 577.390625 704.160156 580.011719 702.050781 582.171875 C 699.980469 584.371094 696.992188 586.03125 693.132812 587.21875 C 689.273438 588.371094 684.679688 588.96875 679.300781 588.96875 C 670.847656 588.921875 662.941406 587.820312 655.679688 585.609375 C 648.375 583.449219 641.757812 580.511719 635.828125 576.878906 C 629.902344 573.210938 624.707031 569.160156 620.296875 564.710938 L 595.203125 601.648438 C 601.363281 607.488281 608.394531 612.589844 616.296875 616.960938 C 624.246094 621.320312 633.210938 624.71875 643.226562 627.160156 C 653.242188 629.589844 664.460938 630.828125 676.820312 630.878906 "/>
<path fill-rule="nonzero" fill="rgb(95.701599%, 96.875%, 98.046875%)" fill-opacity="1" d="M 1142.839844 891.089844 L 1474.941406 891.089844 C 1480.398438 891.089844 1484.820312 895.511719 1484.820312 900.96875 L 1484.820312 1538.527344 C 1484.820312 1543.984375 1480.398438 1548.410156 1474.941406 1548.410156 L 1142.839844 1548.410156 C 1137.390625 1548.410156 1132.960938 1543.984375 1132.960938 1538.527344 L 1132.960938 900.96875 C 1132.960938 895.511719 1137.390625 891.089844 1142.839844 891.089844 Z M 1192.148438 1162.511719 C 1192.148438 1153.402344 1198.738281 1146.019531 1206.871094 1146.019531 C 1215 1146.019531 1221.601562 1153.402344 1221.601562 1162.511719 L 1221.601562 1276.980469 C 1221.601562 1286.089844 1215 1293.472656 1206.871094 1293.472656 C 1198.738281 1293.472656 1192.148438 1286.089844 1192.148438 1276.980469 Z M 529.496094 1268.636719 L 529.496094 892.300781 L 1071.128906 892.300781 L 1071.128906 1268.636719 Z M 790.429688 1248.867188 L 790.429688 1090.351562 L 549.265625 1090.351562 L 549.265625 1248.867188 Z M 790.429688 1070.582031 L 790.429688 912.070312 L 549.265625 912.070312 L 549.265625 1070.582031 Z M 810.195312 912.070312 L 810.195312 1070.582031 L 1051.359375 1070.582031 L 1051.359375 912.070312 Z M 810.195312 1090.351562 L 810.195312 1248.867188 L 1051.359375 1248.867188 L 1051.359375 1090.351562 Z M 1465.050781 910.851562 L 1152.730469 910.851562 L 1152.730469 1528.640625 L 1465.050781 1528.640625 L 1465.050781 910.851562 "/>
</svg>
